# xmcd
#
# Track frame offsets:
#	150
#	30775
#	49965
#	77505
#	112370
#	131200
#	149810
#
# Disc length: 3123 seconds
#
# Revision: 1
# Processed by: cddbd v1.4PL0 Copyright (c) Steve Scherf et al.
# Submitted via: audiograbber 1.82.01
#
DISCID=650c3107
DTITLE=Hany Shaker - Maak
DYEAR=1900
DGENRE=
TTITLE0=Saheb El Jalala El hob
TTITLE1=Toul Omri Bastaltifak
TTITLE2=Mohtajalak
TTITLE3=Helo
TTITLE4=Arjouki ya Habibati
TTITLE5=Maak
TTITLE6=Hikayet Kol Ashek
EXTD=
EXTT0=
EXTT1=
EXTT2=
EXTT3=
EXTT4=
EXTT5=
EXTT6=
PLAYORDER=
